<svg id="Banner" xmlns="http://www.w3.org/2000/svg" viewBox="0 0 4872 512">
	<path fill="#606060" d="M3044.2 414.6c-32.9 0-61.5-5.3-85.9-15.9l5.3-41.1c14.9 6.4 29.4 11.2 43.3 14.6 13.9 3.3 27.5 5 40.6 5 37.5 0 56.2-13.4 56.2-40.3 0-17.2-8.8-29.9-26.5-37.9l-50.1-22.8c-19.7-9-34.8-19.8-45.3-32.4-10.5-12.6-15.8-28.3-15.8-47 0-25.2 8.1-44.8 24.4-58.6s39.3-20.8 69-20.8c18.2 0 34.3 2.9 48.3 8.6 14 5.7 27.4 15 40.3 27.9l-28.5 28.9c-10.9-9.8-21-16.9-30.4-21.3-9.4-4.4-19.2-6.6-29.4-6.6-15.9 0-28.2 3.4-37 10.1-8.8 6.7-13.1 16.7-13.1 29.8 0 9.4 2.5 17 7.5 22.9 5 5.9 12.4 11.2 22.2 15.8l42.4 20c21.4 10 37.7 21.4 48.9 34 11.1 12.6 16.7 28.8 16.7 48.7 0 52.2-34.4 78.4-103.1 78.4zm275.1 0c-36.8 0-65.2-9.7-85.2-29s-30-47.1-30-83.4c0-35.3 8.5-62.7 25.5-82.3 17-19.5 40.9-29.3 71.9-29.3 29.2 0 51.8 8.8 67.7 26.5 15.9 17.6 23.9 43.3 23.9 77 0 9.9-.4 19.1-1.2 27.7H3246c3.8 18.1 12.4 31.7 25.7 41 13.3 9.3 30.8 13.9 52.5 13.9 9 0 17.8-.5 26.5-1.5s17.5-2.4 26.5-4.2l5.3 37.9c-12.8 2.4-24.4 4-35 4.7-10.7.7-20.1 1-28.2 1zm-17.5-186.1c-16.7 0-30 5.2-39.9 15.7-9.9 10.5-15.7 25.3-17.5 44.6h109.5c0-19.4-4.6-34.3-13.8-44.7-9.3-10.4-22-15.6-38.3-15.6zm278.1 186.1c-32.7 0-56.4-6.8-71-20.4-14.6-13.6-21.9-35.3-21.9-65.2v-99h-54.2v-35.4h54.2v-65.2h43.2v65.2h98.1V230h-98.1v96.9c0 17.1 4.2 29.5 12.5 37.3 8.3 7.7 22.1 11.6 41.2 11.6 6.8 0 14-.4 21.6-1.1 7.6-.7 16.3-1.7 26.1-3l4.9 37.9c-9.5 1.6-18.8 2.9-27.8 3.7-9 .9-18.6 1.3-28.8 1.3zm244.4 0c-32.7 0-56.4-6.8-71-20.4-14.6-13.6-21.9-35.3-21.9-65.2v-99h-54.2v-35.4h54.2v-65.2h43.2v65.2h98.1V230h-98.1v96.9c0 17.1 4.2 29.5 12.5 37.3 8.3 7.7 22.1 11.6 41.2 11.6 6.8 0 14-.4 21.6-1.1 7.6-.7 16.3-1.7 26.1-3l4.9 37.9c-9.5 1.6-18.8 2.9-27.8 3.7-9.1.9-18.7 1.3-28.8 1.3zm117.7-4v-35.4h82.3V230.6h-70v-35.8h113.2v180.4h66.4v35.4H3942zm101.4-250.1c-8.3 0-15.4-3-21.3-8.9s-8.9-13-8.9-21.3c0-8.4 3-15.5 8.9-21.4 5.9-5.8 13-8.8 21.3-8.8 8.4 0 15.5 2.9 21.4 8.8 5.8 5.8 8.8 13 8.8 21.4 0 8.3-2.9 15.4-8.8 21.3-5.9 6-13 8.9-21.4 8.9zm144.5 250.1V194.7h39.1l3.5 39.1h4.7c2.4-28.8 21.4-43.2 57-43.2 22.8 0 40.4 6.9 52.9 20.8 12.5 13.8 18.7 33.4 18.7 58.6v140.5h-43.2V270.1c0-13-3.4-23.1-10.2-30.1-6.8-7.1-16.3-10.6-28.5-10.6-33.9 0-50.9 20-50.9 59.9v121.4h-43.1zm247.2 97.3l-2-38.3 69.2-3.3c21.9-1.1 37.7-7.2 47.5-18.4 9.8-11.2 14.8-27.9 14.8-50v-20.8h-3.7c-1.4 12.4-7.2 21.7-17.5 28-10.3 6.3-23.6 9.5-39.9 9.5-27.3 0-48.4-9.5-63.4-28.4s-22.5-46.1-22.5-81.5c0-36.2 7.5-64.3 22.6-84.2 15.1-19.9 36.3-29.8 63.7-29.8 34.3 0 53.3 14.4 57 43.2h4.7l3.5-39.1h39.1v196.7c0 38.4-8.8 66.7-26.3 84.9-17.5 18.2-45.4 28-83.7 29.5l-63.1 2zm25.3-203.2c0 48.9 16.7 73.3 50.1 73.3 36.4 0 54.6-12.2 54.6-36.7v-52.1c0-41.3-18.3-61.9-55-61.9-15.9 0-28.1 6.7-36.8 20.2-8.6 13.4-12.9 32.5-12.9 57.2zm287.5 109.9c-16.3 0-30.2-.5-41.8-1.4-11.6-1-22.2-2.5-31.9-4.7l4.9-39.1c14.3 2.2 26.8 3.8 37.8 4.9 10.9 1.1 21.3 1.6 31.1 1.6 21.9 0 37.7-2.1 47.5-6.4 9.8-4.3 14.8-11.1 14.8-20.5 0-6.5-1.7-11.4-5.2-14.6-3.5-3.2-8.8-5.7-16-7.4l-49.7-12.6c-21.3-5.4-37-12.1-46.9-20.2-10-8-15-20.2-15-36.4 0-23.6 9.1-40.7 27.2-51.3 18.1-10.6 47.3-15.9 87.7-15.9 19.8 0 38.8 1.4 57 4.1l-4.5 37.5c-11-1.1-20.7-1.8-29.1-2.2-8.4-.4-16.6-.6-24.6-.6-24.2 0-41.7 2.1-52.5 6.2-10.9 4.1-16.3 10.9-16.3 20.3 0 6.2 2.2 10.8 6.7 13.5 4.5 2.8 11.3 5.3 20.6 7.6l39.9 9.8c22.7 5.4 39.3 12.7 49.8 21.8 10.5 9.1 15.8 22.3 15.8 39.7 0 23.2-8.5 40.1-25.5 50.6-17.2 10.5-44.4 15.7-81.8 15.7z"/>
	<path fill="#d0d0d0" d="M2683 512H729V0h1954c83.7 86 167.3 172 251 258l-251 254z"/>
	<path fill="#404040" d="M1131.7 414.6c-89.9 0-134.8-49.7-134.8-149 0-47.1 11.3-83.6 34-109.4 22.7-25.9 54.6-38.8 95.9-38.8 20 0 37.3 3.2 52.1 9.5 14.8 6.3 25.6 15.3 32.4 27l-30.1 29.9c-6.1-9.2-13.9-16.4-23.3-21.4s-19.6-7.5-30.6-7.5c-26.2 0-47.2 9.4-63 28.3-15.8 18.9-23.7 45.7-23.7 80.4 0 75.7 32.7 113.6 98.1 113.6 19.7 0 39.1-4.1 58.2-12.2l9.4 35.8c-23.7 9.2-48.6 13.8-74.6 13.8zm212.1 0c-29.9 0-53.1-9.8-69.6-29.3-16.6-19.5-24.8-47.1-24.8-82.7 0-35.7 8.3-63.3 24.8-82.8 16.6-19.5 39.8-29.2 69.6-29.2 30 0 53.2 9.7 69.7 29.2s24.7 47.1 24.7 82.8c0 35.6-8.2 63.1-24.7 82.7-16.4 19.6-39.7 29.3-69.7 29.3zm0-38.7c15.9 0 28.1-6.4 36.8-19.1 8.6-12.8 12.9-30.8 12.9-54.2 0-23.5-4.3-41.6-12.9-54.3-8.6-12.7-20.9-19-36.8-19s-28.1 6.3-36.8 19c-8.6 12.7-12.9 30.8-12.9 54.3 0 23.3 4.3 41.4 12.9 54.2 8.7 12.8 21 19.1 36.8 19.1zm156.4 34.7V194.7h39.1l3.5 39.1h4.7c2.4-28.8 21.4-43.2 57-43.2 22.8 0 40.4 6.9 52.9 20.8 12.5 13.8 18.7 33.4 18.7 58.6v140.5H1633V270.1c0-13-3.4-23.1-10.2-30.1-6.8-7.1-16.3-10.6-28.5-10.6-33.9 0-50.9 20-50.9 59.9v121.4h-43.2zm315.6 4c-16.3 0-30.2-.5-41.8-1.4-11.6-1-22.2-2.5-31.9-4.7l4.9-39.1c14.3 2.2 26.8 3.8 37.8 4.9 10.9 1.1 21.3 1.6 31.1 1.6 21.9 0 37.7-2.1 47.5-6.4 9.8-4.3 14.8-11.1 14.8-20.5 0-6.5-1.7-11.4-5.2-14.6-3.5-3.2-8.8-5.7-16-7.4l-49.7-12.6c-21.3-5.4-37-12.1-46.9-20.2-10-8-15-20.2-15-36.4 0-23.6 9.1-40.7 27.2-51.3 18.1-10.6 47.3-15.9 87.7-15.9 19.8 0 38.8 1.4 57 4.1l-4.5 37.5c-11-1.1-20.7-1.8-29.1-2.2-8.4-.4-16.6-.6-24.6-.6-24.2 0-41.7 2.1-52.5 6.2-10.9 4.1-16.3 10.9-16.3 20.3 0 6.2 2.2 10.8 6.7 13.5 4.5 2.8 11.3 5.3 20.6 7.6l39.9 9.8c22.7 5.4 39.3 12.7 49.8 21.8 10.5 9.1 15.8 22.3 15.8 39.7 0 23.2-8.5 40.1-25.5 50.6-17.1 10.5-44.3 15.7-81.8 15.7zm261.1 0c-29.9 0-53.1-9.8-69.6-29.3-16.6-19.5-24.8-47.1-24.8-82.7 0-35.7 8.3-63.3 24.8-82.8 16.6-19.5 39.8-29.2 69.6-29.2 30 0 53.2 9.7 69.7 29.2s24.7 47.1 24.7 82.8c0 35.6-8.2 63.1-24.7 82.7s-39.7 29.3-69.7 29.3zm0-38.7c15.9 0 28.1-6.4 36.8-19.1 8.6-12.8 12.9-30.8 12.9-54.2 0-23.5-4.3-41.6-12.9-54.3-8.6-12.7-20.9-19-36.8-19s-28.1 6.3-36.8 19c-8.6 12.7-12.9 30.8-12.9 54.3 0 23.3 4.3 41.4 12.9 54.2 8.6 12.8 20.9 19.1 36.8 19.1zm274.4 38.7c-25 0-43-6.8-54.2-20.4-11.1-13.6-16.7-35.3-16.7-65.2V140.6h-63.5v-35.4h106.7v221.9c0 11.4 1.1 20.7 3.3 27.9 2.2 7.2 6.4 12.5 12.7 15.9 6.3 3.4 15.6 5.1 28 5.1 11.3 0 25.7-2.6 43.2-7.7l4.9 37.9c-11 3-21.6 5.2-31.7 6.5-10.1 1.3-21 1.9-32.7 1.9zm235 0c-36.8 0-65.2-9.7-85.2-29s-30-47.1-30-83.4c0-35.3 8.5-62.7 25.5-82.3 17-19.5 40.9-29.3 71.9-29.3 29.2 0 51.8 8.8 67.7 26.5 15.9 17.6 23.9 43.3 23.9 77 0 9.9-.4 19.1-1.2 27.7H2513c3.8 18.1 12.4 31.7 25.7 41 13.3 9.3 30.8 13.9 52.5 13.9 9 0 17.8-.5 26.5-1.5s17.5-2.4 26.5-4.2l5.3 37.9c-12.8 2.4-24.4 4-35 4.7-10.7.7-20.1 1-28.2 1zm-17.5-186.1c-16.7 0-30 5.2-39.9 15.7-9.9 10.5-15.7 25.3-17.5 44.6h109.5c0-19.4-4.6-34.3-13.8-44.7-9.3-10.4-22-15.6-38.3-15.6z"/>
	<path fill="#a0a0a0" d="M733 512H0V0h733c81.4 85.6 162.9 171.1 244.3 256.7C895.9 341.8 814.4 426.9 733 512z"/>
	<path fill="#202020" d="M112.2 414.6c-32.9 0-61.5-5.3-85.9-15.9l5.3-41.1c14.9 6.4 29.4 11.2 43.3 14.6 13.9 3.3 27.5 5 40.6 5 37.5 0 56.2-13.4 56.2-40.3 0-17.2-8.8-29.9-26.5-37.9l-50.1-22.8c-19.7-9-34.8-19.8-45.3-32.4-10.5-12.6-15.8-28.3-15.8-47 0-25.2 8.1-44.8 24.4-58.6s39.3-20.8 69-20.8c18.2 0 34.3 2.9 48.3 8.6 14 5.7 27.4 15 40.3 27.9l-28.5 28.9c-10.9-9.8-21-16.9-30.4-21.3-9.4-4.4-19.2-6.6-29.4-6.6-15.9 0-28.2 3.4-37 10.1-8.8 6.7-13.1 16.7-13.1 29.8 0 9.4 2.5 17 7.5 22.9 5 5.9 12.4 11.2 22.2 15.8l42.4 20c21.4 10 37.7 21.4 48.9 34 11.1 12.6 16.7 28.8 16.7 48.7-.1 52.2-34.4 78.4-103.1 78.4zm275.1 0c-36.8 0-65.2-9.7-85.2-29s-30-47.1-30-83.4c0-35.3 8.5-62.7 25.5-82.3 17-19.5 40.9-29.3 71.9-29.3 29.2 0 51.8 8.8 67.7 26.5 15.9 17.6 23.9 43.3 23.9 77 0 9.9-.4 19.1-1.2 27.7H314c3.8 18.1 12.4 31.7 25.7 41 13.3 9.3 30.8 13.9 52.5 13.9 9 0 17.8-.5 26.5-1.5s17.5-2.4 26.5-4.2l5.3 37.9c-12.8 2.4-24.4 4-35 4.7-10.7.7-20.1 1-28.2 1zm-17.5-186.1c-16.7 0-30 5.2-39.9 15.7-9.9 10.5-15.7 25.3-17.5 44.6h109.5c0-19.4-4.6-34.3-13.8-44.7-9.3-10.4-22-15.6-38.3-15.6zm278.1 186.1c-32.7 0-56.4-6.8-71-20.4-14.6-13.5-21.9-35.2-21.9-65.1v-99h-54.2v-35.4H555v-65.2h43.2v65.2h98.1v35.4h-98.1V327c0 17.1 4.2 29.5 12.5 37.3 8.3 7.7 22.1 11.6 41.2 11.6 6.8 0 14-.4 21.6-1.1 7.6-.7 16.3-1.7 26.1-3l4.9 37.9c-9.5 1.6-18.8 2.9-27.8 3.7-9 .8-18.6 1.2-28.8 1.2z"/>
</svg>